<svg id="Layer_1" height="512" viewBox="0 0 512 512" width="512" xmlns="http://www.w3.org/2000/svg" data-name="Layer 1"><path d="m299.053 505a6 6 0 0 1 -6-6v-54.7a37.362 37.362 0 0 0 -37.32-37.321h-47.477a49.376 49.376 0 0 1 -49.32-49.319v-34.66a6 6 0 0 1 12 0v34.66a37.362 37.362 0 0 0 37.32 37.319h47.477a49.376 49.376 0 0 1 49.32 49.321v54.7a6 6 0 0 1 -6 6z" fill="#d4e1f4"/><path d="m347.064 502.349a6 6 0 0 1 -6-6v-88.8a6 6 0 0 1 12 0v88.805a6 6 0 0 1 -6 5.995z" fill="#d4e1f4"/><path d="m471.46 137.81v65.22a24.156 24.156 0 0 1 -24.16 24.15v-113.52a24.156 24.156 0 0 1 24.16 24.15z" fill="#7d8696"/><path d="m447.3 114.25v112.2a74.67 74.67 0 0 1 -72.64 15.21 2.612 2.612 0 0 0 -3.44 2.48v106.95h-48.31v-179.55c0-41.3 32.97-75.67 74.27-76a74.6 74.6 0 0 1 50.12 18.71z" fill="#b3d1e7"/><path d="m371.22 351.09v34.3a24.156 24.156 0 0 1 -24.16 24.15c-13.34 0-24.15-10.81-24.15-18.11v-40.34z" fill="#81a4ca"/><path d="m189.09 266.55v40.34c0 7.3-10.81 18.11-24.15 18.11a24.156 24.156 0 0 1 -24.16-24.15v-34.3z" fill="#81a4ca"/><path d="m189.09 87v179.55h-48.31v-106.95a2.612 2.612 0 0 0 -3.44-2.48 74.67 74.67 0 0 1 -72.64-15.21v-112.2a74.6 74.6 0 0 1 50.12-18.71c41.3.33 74.27 34.7 74.27 76z" fill="#b3d1e7"/><path d="m64.7 141.91v.73a24.156 24.156 0 0 1 -24.16-24.15v-65.22a24.156 24.156 0 0 1 24.16-24.15z" fill="#7d8696"/><path d="m166.78 300.85v-34.3h-26v34.3a24.156 24.156 0 0 0 24.16 24.15 26.533 26.533 0 0 0 13.23-3.65 24.146 24.146 0 0 1 -11.39-20.5z" fill="#6c8ead"/><path d="m126.717 12.22.414-.074a74.536 74.536 0 0 0 -62.431 17.564v112.2a74.535 74.535 0 0 0 47.36 18.82 75.893 75.893 0 0 0 15.178-1.117l-.555-.1a44.252 44.252 0 0 1 -35.983-43.613v-60.062a44.213 44.213 0 0 1 36.017-43.618z" fill="#90b0c4"/><path d="m166.78 159.6a2.612 2.612 0 0 0 -3.44-2.48 75.051 75.051 0 0 1 -22.56 3.626v105.8h26z" fill="#90b0c4"/><g fill="#f4f8fc"><path d="m163.5 91.528a6 6 0 0 1 -6-6 43.13 43.13 0 0 0 -24.214-38.753 6 6 0 1 1 5.193-10.817 55.189 55.189 0 0 1 31.021 49.57 6 6 0 0 1 -6 6z"/><path d="m163.5 118.833a6 6 0 0 1 -6-6v-6.712a6 6 0 1 1 12 0v6.712a6 6 0 0 1 -6 6z"/><path d="m348.505 176.067a6 6 0 0 1 -6-6 55.188 55.188 0 0 1 31.021-49.567 6 6 0 1 1 5.193 10.817 43.129 43.129 0 0 0 -24.214 38.752 6 6 0 0 1 -6 5.998z"/><path d="m348.505 203.373a6 6 0 0 1 -6-6v-6.712a6 6 0 1 1 12 0v6.712a6 6 0 0 1 -6 6z"/></g></svg>